<svg xmlns="http://www.w3.org/2000/svg" viewBox="0 0 113.54 132.72"><defs><style>.cls-1{fill:none;stroke:#000;stroke-miterlimit:10;}</style></defs><title>Asset 1</title><g id="Layer_2" data-name="Layer 2"><g id="Layer_1-2" data-name="Layer 1"><line class="cls-1" x1="54.46" y1="16.62" x2="104.84" y2="54.02"/><line class="cls-1" x1="104.79" y1="12.26" x2="94.45" y2="4.58"/><line class="cls-1" x1="61.95" y1="6.53" x2="112.33" y2="43.93"/><line class="cls-1" x1="59.45" y1="9.89" x2="109.84" y2="47.29"/><line class="cls-1" x1="68.52" y1="6.2" x2="110.75" y2="37.54"/><line class="cls-1" x1="71.02" y1="2.84" x2="113.24" y2="34.18"/><line class="cls-1" x1="79.3" y1="3.76" x2="109.96" y2="26.52"/><line class="cls-1" x1="81.79" y1="0.4" x2="112.45" y2="23.16"/><line class="cls-1" x1="6.84" y1="80.77" x2="57.22" y2="118.17"/><line class="cls-1" x1="0.77" y1="109.56" x2="31.43" y2="132.32"/><line class="cls-1" x1="3.42" y1="105.98" x2="34.08" y2="128.74"/><line class="cls-1" x1="0.3" y1="98.11" x2="42.52" y2="129.45"/><line class="cls-1" x1="2.95" y1="94.53" x2="45.18" y2="125.87"/><line class="cls-1" x1="1.53" y1="87.93" x2="51.91" y2="125.33"/><line class="cls-1" x1="4" y1="84.21" x2="54.38" y2="121.61"/><line class="cls-1" x1="18.62" y1="128.36" x2="8.27" y2="120.68"/><line class="cls-1" x1="79.43" y1="35.16" x2="31.81" y2="99.31"/><line class="cls-1" x1="78.53" y1="40.12" x2="36.23" y2="97.11"/><line class="cls-1" x1="75.07" y1="37.47" x2="32.76" y2="94.46"/><line class="cls-1" x1="56.96" y1="13.18" x2="107.34" y2="50.58"/></g></g></svg>